<svg width="274" height="274" viewBox="0 0 274 274" fill="none" xmlns="http://www.w3.org/2000/svg">
<path d="M179.667 265.001V157.208C179.667 153.635 178.168 150.207 175.501 147.681C172.834 145.154 169.216 143.734 165.444 143.734H108.556C104.784 143.734 101.166 145.154 98.4989 147.681C95.8317 150.207 94.3333 153.635 94.3333 157.208V265.001" stroke="#06B6D4" stroke-width="18" stroke-linecap="round" stroke-linejoin="round"/>
<path d="M9 116.786C8.99901 112.866 9.90075 108.993 11.6423 105.437C13.3839 101.881 15.9233 98.7279 19.0836 96.1976L118.639 15.3667C123.773 11.2559 130.278 9.00052 137 9.00052C143.722 9.00052 150.227 11.2559 155.361 15.3667L254.916 96.1976C258.077 98.7279 260.616 101.881 262.358 105.437C264.099 108.993 265.001 112.866 265 116.786V238.052C265 245.199 262.003 252.054 256.669 257.108C251.334 262.161 244.099 265 236.556 265H37.4444C29.9005 265 22.6656 262.161 17.3312 257.108C11.9968 252.054 9 245.199 9 238.052V116.786Z" stroke="#06B6D4" stroke-width="18" stroke-linecap="round" stroke-linejoin="round"/>
</svg>
