<svg id="Warstwa_1" data-name="Warstwa 1" xmlns="http://www.w3.org/2000/svg" viewBox="0 0 426.76 438.21"><defs><style>.cls-1{fill:#f4bf1c;}.cls-2{fill:#009fe3;}.cls-3{fill:#fff;}.cls-4{fill:#02a9c7;}.cls-5{fill:#312783;}</style></defs><path class="cls-1" d="M254.42,458.07c-2.34-2.53-4.69-5-7-7.58a1.28,1.28,0,0,0-1.36-.42c-3.56.7-7.13,1.35-10.7,2a1.58,1.58,0,0,1-.3,0,2.87,2.87,0,0,1,.55-1.3c1.59-2.85,3.18-5.69,4.8-8.52a1.34,1.34,0,0,0,0-1.5c-1.7-3-3.35-6.11-5-9.17-.11-.2-.22-.43-.43-.83l5.55,1.08c1.89.38,3.78.74,5.67,1.15a1.31,1.31,0,0,0,1.41-.5q1.92-2.07,3.87-4.13l2.37,23.88Z" transform="translate(-76.75 -202.78)"/><path class="cls-1" d="M327.21,483.93c0,.33-.09.66-.13,1s.06.51-.2.59-.37-.21-.51-.37l-.21-.22Z" transform="translate(-76.75 -202.78)"/><path class="cls-1" d="M231.81,428.17c-.08.26-.33.3-.52.39-3.25,1.49-6.5,3-9.77,4.47a1.08,1.08,0,0,0-.72,1c-.44,3.56-.91,7.1-1.36,10.66,0,.22,0,.51-.21.58s-.34-.24-.48-.39-.33-.35-.5-.53h0l-3.57-28.43v0l4-4.17a2.86,2.86,0,0,1,.87-.74c.14,1.11.28,2.18.41,3.23.31,2.65.65,5.29.92,7.95a1.4,1.4,0,0,0,1,1.25q4.47,2.07,8.93,4.18A3.59,3.59,0,0,1,231.81,428.17Z" transform="translate(-76.75 -202.78)"/><polygon class="cls-2" points="241.89 423.07 208.56 426.5 208.31 424.06 213.05 423.58 216.04 423.21 235.78 420.77 241.58 420.08 241.89 423.07"/><path class="cls-3" d="M358.07,272.86q-4.12-3.27-8.21-6.62c-.5-.41-.72-.43-1.15.11Q337,280.93,325.25,295.5c-.43.53-.68.65-1.27.16-3.62-3-7.29-5.9-10.94-8.84-.28-.22-.48-.55-.88-.05q-3.45,4.35-7,8.65c-.26.32-.19.47.1.69l20.79,16.75.41.31.43-.51q15.63-19.38,31.28-38.76C358.58,273.42,358.53,273.23,358.07,272.86Zm0,0q-4.12-3.27-8.21-6.62c-.5-.41-.72-.43-1.15.11Q337,280.93,325.25,295.5c-.43.53-.68.65-1.27.16-3.62-3-7.29-5.9-10.94-8.84-.28-.22-.48-.55-.88-.05q-3.45,4.35-7,8.65c-.26.32-.19.47.1.69l20.79,16.75.41.31.43-.51q15.63-19.38,31.28-38.76C358.58,273.42,358.53,273.23,358.07,272.86Zm0,0q-4.12-3.27-8.21-6.62c-.5-.41-.72-.43-1.15.11Q337,280.93,325.25,295.5c-.43.53-.68.65-1.27.16-3.62-3-7.29-5.9-10.94-8.84-.28-.22-.48-.55-.88-.05q-3.45,4.35-7,8.65c-.26.32-.19.47.1.69l20.79,16.75.41.31.43-.51q15.63-19.38,31.28-38.76C358.58,273.42,358.53,273.23,358.07,272.86Zm0,0q-4.12-3.27-8.21-6.62c-.5-.41-.72-.43-1.15.11Q337,280.93,325.25,295.5c-.43.53-.68.65-1.27.16-3.62-3-7.29-5.9-10.94-8.84-.28-.22-.48-.55-.88-.05q-3.45,4.35-7,8.65c-.26.32-.19.47.1.69l20.79,16.75.41.31.43-.51q15.63-19.38,31.28-38.76C358.58,273.42,358.53,273.23,358.07,272.86Zm0,0q-4.12-3.27-8.21-6.62c-.5-.41-.72-.43-1.15.11Q337,280.93,325.25,295.5c-.43.53-.68.65-1.27.16-3.62-3-7.29-5.9-10.94-8.84-.28-.22-.48-.55-.88-.05q-3.45,4.35-7,8.65c-.26.32-.19.47.1.69l20.79,16.75.41.31.43-.51q15.63-19.38,31.28-38.76C358.58,273.42,358.53,273.23,358.07,272.86Zm0,0q-4.12-3.27-8.21-6.62c-.5-.41-.72-.43-1.15.11Q337,280.93,325.25,295.5c-.43.53-.68.65-1.27.16-3.62-3-7.29-5.9-10.94-8.84-.28-.22-.48-.55-.88-.05q-3.45,4.35-7,8.65c-.26.32-.19.47.1.69l20.79,16.75.41.31.43-.51q15.63-19.38,31.28-38.76C358.58,273.42,358.53,273.23,358.07,272.86Zm0,0q-4.12-3.27-8.21-6.62c-.5-.41-.72-.43-1.15.11Q337,280.93,325.25,295.5c-.43.53-.68.65-1.27.16-3.62-3-7.29-5.9-10.94-8.84-.28-.22-.48-.55-.88-.05q-3.45,4.35-7,8.65c-.26.32-.19.47.1.69l20.79,16.75.41.31.43-.51q15.63-19.38,31.28-38.76C358.58,273.42,358.53,273.23,358.07,272.86Zm0,0q-4.12-3.27-8.21-6.62c-.5-.41-.72-.43-1.15.11Q337,280.93,325.25,295.5c-.43.53-.68.65-1.27.16-3.62-3-7.29-5.9-10.94-8.84-.28-.22-.48-.55-.88-.05q-3.45,4.35-7,8.65c-.26.32-.19.47.1.69l20.79,16.75.41.31.43-.51q15.63-19.38,31.28-38.76C358.58,273.42,358.53,273.23,358.07,272.86Zm0,0q-4.12-3.27-8.21-6.62c-.5-.41-.72-.43-1.15.11Q337,280.93,325.25,295.5c-.43.53-.68.65-1.27.16-3.62-3-7.29-5.9-10.94-8.84-.28-.22-.48-.55-.88-.05q-3.45,4.35-7,8.65c-.26.32-.19.47.1.69l20.79,16.75.41.31.43-.51q15.63-19.38,31.28-38.76C358.58,273.42,358.53,273.23,358.07,272.86Zm0,0q-4.12-3.27-8.21-6.62c-.5-.41-.72-.43-1.15.11Q337,280.93,325.25,295.5c-.43.53-.68.65-1.27.16-3.62-3-7.29-5.9-10.94-8.84-.28-.22-.48-.55-.88-.05q-3.45,4.35-7,8.65c-.26.32-.19.47.1.69l20.79,16.75.41.31.43-.51q15.63-19.38,31.28-38.76C358.58,273.42,358.53,273.23,358.07,272.86Zm0,0q-4.12-3.27-8.21-6.62c-.5-.41-.72-.43-1.15.11Q337,280.93,325.25,295.5c-.43.53-.68.65-1.27.16-3.62-3-7.29-5.9-10.94-8.84-.28-.22-.48-.55-.88-.05q-3.45,4.35-7,8.65c-.26.32-.19.47.1.69l20.79,16.75.41.31.43-.51q15.63-19.38,31.28-38.76C358.58,273.42,358.53,273.23,358.07,272.86Zm0,0q-4.12-3.27-8.21-6.62c-.5-.41-.72-.43-1.15.11Q337,280.93,325.25,295.5c-.43.53-.68.65-1.27.16-3.62-3-7.29-5.9-10.94-8.84-.28-.22-.48-.55-.88-.05q-3.45,4.35-7,8.65c-.26.32-.19.47.1.69l20.79,16.75.41.31.43-.51q15.63-19.38,31.28-38.76C358.58,273.42,358.53,273.23,358.07,272.86Zm0,0q-4.12-3.27-8.21-6.62c-.5-.41-.72-.43-1.15.11Q337,280.93,325.25,295.5c-.43.53-.68.65-1.27.16-3.62-3-7.29-5.9-10.94-8.84-.28-.22-.48-.55-.88-.05q-3.45,4.35-7,8.65c-.26.32-.19.47.1.69l20.79,16.75.41.31.43-.51q15.63-19.38,31.28-38.76C358.58,273.42,358.53,273.23,358.07,272.86Zm0,0q-4.12-3.27-8.21-6.62c-.5-.41-.72-.43-1.15.11Q337,280.93,325.25,295.5c-.43.53-.68.65-1.27.16-3.62-3-7.29-5.9-10.94-8.84-.28-.22-.48-.55-.88-.05q-3.45,4.35-7,8.65c-.26.32-.19.47.1.69l20.79,16.75.41.31.43-.51q15.63-19.38,31.28-38.76C358.58,273.42,358.53,273.23,358.07,272.86Zm0,0q-4.12-3.27-8.21-6.62c-.5-.41-.72-.43-1.15.11Q337,280.93,325.25,295.5c-.43.53-.68.65-1.27.16-3.62-3-7.29-5.9-10.94-8.84-.28-.22-.48-.55-.88-.05q-3.45,4.35-7,8.65c-.26.32-.19.47.1.69l20.79,16.75.41.31.43-.51q15.63-19.38,31.28-38.76C358.58,273.42,358.53,273.23,358.07,272.86Zm0,0q-4.12-3.27-8.21-6.62c-.5-.41-.72-.43-1.15.11Q337,280.93,325.25,295.5c-.43.53-.68.65-1.27.16-3.62-3-7.29-5.9-10.94-8.84-.28-.22-.48-.55-.88-.05q-3.45,4.35-7,8.65c-.26.32-.19.47.1.69l20.79,16.75.41.31.43-.51q15.63-19.38,31.28-38.76C358.58,273.42,358.53,273.23,358.07,272.86Zm0,0q-4.12-3.27-8.21-6.62c-.5-.41-.72-.43-1.15.11Q337,280.93,325.25,295.5c-.43.53-.68.65-1.27.16-3.62-3-7.29-5.9-10.94-8.84-.28-.22-.48-.55-.88-.05q-3.45,4.35-7,8.65c-.26.32-.19.47.1.69l20.79,16.75.41.31.43-.51q15.63-19.38,31.28-38.76C358.58,273.42,358.53,273.23,358.07,272.86Zm0,0q-4.12-3.27-8.21-6.62c-.5-.41-.72-.43-1.15.11Q337,280.93,325.25,295.5c-.43.53-.68.65-1.27.16-3.62-3-7.29-5.9-10.94-8.84-.28-.22-.48-.55-.88-.05q-3.45,4.35-7,8.65c-.26.32-.19.47.1.69l20.79,16.75.41.31.43-.51q15.63-19.38,31.28-38.76C358.58,273.42,358.53,273.23,358.07,272.86Zm0,0q-4.12-3.27-8.21-6.62c-.5-.41-.72-.43-1.15.11Q337,280.93,325.25,295.5c-.43.53-.68.65-1.27.16-3.62-3-7.29-5.9-10.94-8.84-.28-.22-.48-.55-.88-.05q-3.45,4.35-7,8.65c-.26.32-.19.47.1.69l20.79,16.75.41.31.43-.51q15.63-19.38,31.28-38.76C358.58,273.42,358.53,273.23,358.07,272.86Zm0,0q-4.12-3.27-8.21-6.62c-.5-.41-.72-.43-1.15.11Q337,280.93,325.25,295.5c-.43.53-.68.65-1.27.16-3.62-3-7.29-5.9-10.94-8.84-.28-.22-.48-.55-.88-.05q-3.45,4.35-7,8.65c-.26.32-.19.47.1.69l20.79,16.75.41.31.43-.51q15.63-19.38,31.28-38.76C358.58,273.42,358.53,273.23,358.07,272.86Zm0,0q-4.12-3.27-8.21-6.62c-.5-.41-.72-.43-1.15.11Q337,280.93,325.25,295.5c-.43.53-.68.65-1.27.16-3.62-3-7.29-5.9-10.94-8.84-.28-.22-.48-.55-.88-.05q-3.45,4.35-7,8.65c-.26.32-.19.47.1.69l20.79,16.75.41.31.43-.51q15.63-19.38,31.28-38.76C358.58,273.42,358.53,273.23,358.07,272.86Zm0,0q-4.12-3.27-8.21-6.62c-.5-.41-.72-.43-1.15.11Q337,280.93,325.25,295.5c-.43.53-.68.65-1.27.16-3.62-3-7.29-5.9-10.94-8.84-.28-.22-.48-.55-.88-.05q-3.45,4.35-7,8.65c-.26.32-.19.47.1.69l20.79,16.75.41.31.43-.51q15.63-19.38,31.28-38.76C358.58,273.42,358.53,273.23,358.07,272.86Zm0,0q-4.12-3.27-8.21-6.62c-.5-.41-.72-.43-1.15.11Q337,280.93,325.25,295.5c-.43.53-.68.65-1.27.16-3.62-3-7.29-5.9-10.94-8.84-.28-.22-.48-.55-.88-.05q-3.45,4.35-7,8.65c-.26.32-.19.47.1.69l20.79,16.75.41.31.43-.51q15.63-19.38,31.28-38.76C358.58,273.42,358.53,273.23,358.07,272.86Zm0,0q-4.12-3.27-8.21-6.62c-.5-.41-.72-.43-1.15.11Q337,280.93,325.25,295.5c-.43.53-.68.65-1.27.16-3.62-3-7.29-5.9-10.94-8.84-.28-.22-.48-.55-.88-.05q-3.45,4.35-7,8.65c-.26.32-.19.47.1.69l20.79,16.75.41.31.43-.51q15.63-19.38,31.28-38.76C358.58,273.42,358.53,273.23,358.07,272.86Zm0,0q-4.12-3.27-8.21-6.62c-.5-.41-.72-.43-1.15.11Q337,280.93,325.25,295.5c-.43.53-.68.65-1.27.16-3.62-3-7.29-5.9-10.94-8.84-.28-.22-.48-.55-.88-.05q-3.45,4.35-7,8.65c-.26.32-.19.47.1.69l20.79,16.75.41.31.43-.51q15.63-19.38,31.28-38.76C358.58,273.42,358.53,273.23,358.07,272.86ZM305.15,447l8-7.54,31.34-29.57,37.77-35.66,31.34-29.58,4.34,2.58-2.22-4.58L356,219.51l-4.31-6.11-4.24-2.87-6.52-3.28-6.63-3.34-7.16-1.13H327l-7.73.15H319l-.43.2-13.14,6.08L176.28,269l-5.14,3.63-3.22,4.91-3.49,5.9-.08.25L76.9,529.5l-.15,9L78.36,548l3.47,7.58L86.47,562l5.11,4.91,9.07,4.57,12,4.58,22,7.87L290,640.27l7.61.72,6.91-.6,8.09-2.15,6.26-2.68,1.67-.71,6.3-3.63,4.91-5.5,2.39-4.75,1.75-3.47,5-9.92,14.17-40.44,2-5.68-21.58,2.35-2.61-24,4.18-.45-.36-3.39-4.18.45-2.61-24,23.88-2.6,1,9.43,3.39-.36-1-9.43L376,507.34l.86-2.47,8-22.85-34.17-20.27-23.5,22.18-1,1L285,523.74l-21,19.78-14.15,13.37-10.22,9.63-5.46,5.15-.92-7.36-4-31.75-7.52,3.17a1,1,0,0,0-.68.85c-.55,3.58-1.13,7.16-1.7,10.73,0,.22,0,.52-.21.6s-.4-.23-.56-.41q-3.51-4-7-8a1.27,1.27,0,0,0-1.36-.47c-3.62.6-7.25,1.16-10.87,1.72a1.1,1.1,0,0,1-.31,0,2.89,2.89,0,0,1,.6-1.3c1.69-2.83,3.38-5.66,5.1-8.48a1.34,1.34,0,0,0,.06-1.51c-1.63-3.12-3.21-6.27-4.8-9.41-.11-.22-.21-.45-.41-.86l5.57,1.26c1.9.44,3.8.86,5.7,1.33a1.33,1.33,0,0,0,1.44-.47c2.53-2.56,5.08-5.1,7.62-7.63.12-.12.22-.35.42-.23s.13.36.15.56q.5,5.4,1,10.82a1,1,0,0,0,.62,1c2.26,1.14,4.51,2.3,6.76,3.46L227.76,520l30-28.32-2.31-23.23-1-10.42-.58-5.83-2.37-23.88-4.13-41.51,51.32-5.1,2.55,25.65h0Zm7.38,176.55L292.79,626l-3,.37-4.74.48-4.53-44,33.34-3.43,4.46,43.42Zm11.31-101.08h0l4.84-.51,3.59,33.83-5.71.61L301.63,559h0l-3.17.34-.22-2.07h0l-3.38-31.74Zm-156-117.68,6.68,1.35a1.07,1.07,0,0,0,1.16-.38c2.44-2.62,4.91-5.22,7.37-7.81a4.09,4.09,0,0,1,.44-.39c.27.16.19.41.22.61.43,3.55.86,7.11,1.26,10.67a1.1,1.1,0,0,0,.7,1c3.24,1.51,6.48,3.06,9.72,4.6.18.09.51.08.49.35s-.32.26-.52.35c-3.21,1.47-6.41,3-9.63,4.4a1.32,1.32,0,0,0-.85,1.22c-.43,3.57-.91,7.15-1.36,10.72a.41.41,0,0,1-.24.39L177.87,426c-.76-.81-1.53-1.61-2.26-2.46a1.13,1.13,0,0,0-1.23-.38q-5.2,1-10.42,2c-.2,0-.45.25-.62,0s.06-.41.16-.6c1.73-3.08,3.44-6.16,5.19-9.23a1.25,1.25,0,0,0,0-1.42c-1.79-3.19-3.53-6.41-5.28-9.61,0-.08-.05-.18-.12-.39Zm-7.75,97.4c-3.28,1.39-6.57,2.8-9.87,4.16a1.32,1.32,0,0,0-.89,1.2c-.55,3.61-1.13,7.2-1.69,10.8,0,.16-.05.3-.25.39l-5.31-6.08c-.74-.84-1.5-1.67-2.21-2.55a1.16,1.16,0,0,0-1.24-.42c-3.52.58-7.06,1.12-10.59,1.66-.2,0-.46.23-.62,0s.07-.42.18-.61c1.83-3.06,3.66-6.13,5.51-9.18a1.27,1.27,0,0,0,0-1.43c-1.72-3.28-3.38-6.58-5-9.88a2.73,2.73,0,0,1-.11-.39l4.59,1c2.24.52,4.48,1,6.71,1.57a1.13,1.13,0,0,0,1.19-.35c2.54-2.58,5.11-5.13,7.68-7.68.14-.14.3-.25.45-.38.27.17.19.42.21.63.33,3.6.66,7.21,1,10.82a1.09,1.09,0,0,0,.67,1c3.24,1.63,6.46,3.28,9.69,4.94.18.09.51.09.49.37S160.3,502.1,160.1,502.19ZM196,516.82c-3.33,1.41-6.66,2.83-10,4.23a1.1,1.1,0,0,0-.76,1c-.54,3.58-1.12,7.15-1.69,10.73,0,.21,0,.52-.23.58s-.33-.26-.47-.41c-2.35-2.69-4.71-5.37-7-8.08a1.35,1.35,0,0,0-1.43-.49c-3.44.56-6.9,1.1-10.35,1.63-.24,0-.57.28-.74,0s.12-.46.24-.67c1.57-2.61,3.12-5.24,4.72-7.83,1.18-1.91,1.19-1.88.17-3.86-1.46-2.84-2.9-5.69-4.35-8.54a2.63,2.63,0,0,0-.26-.35l.2-.18,6.2,1.42c1.71.38,3.42.75,5.12,1.16a.83.83,0,0,0,.92-.26c2.48-2.49,5-5,7.47-7.46a3.26,3.26,0,0,1,.9-.72c.11,1.12.23,2.21.32,3.28.24,2.68.51,5.37.69,8.05a1.43,1.43,0,0,0,.94,1.29q4.45,2.23,8.9,4.5a3.59,3.59,0,0,1,1.08.64C196.45,516.71,196.21,516.73,196,516.82Zm15.55-79.75a1.33,1.33,0,0,0-1.43-.43q-5.08,1-10.18,1.91c-.24,0-.56.29-.74,0s.11-.46.22-.67c1.47-2.63,2.93-5.27,4.44-7.88,1.11-1.92,1.13-1.89.06-3.82-1.53-2.76-3-5.54-4.55-8.3a1.91,1.91,0,0,0-.27-.35l.19-.18,6.17,1.21c1.7.33,3.4.65,5.09,1a.86.86,0,0,0,.91-.28q1.59-1.71,3.21-3.41l3.57,28.43C216,441.91,213.77,439.51,211.56,437.07ZM293.45,292.9A39.62,39.62,0,1,1,337,328.08,39.63,39.63,0,0,1,293.45,292.9Zm11.84,3.21,20.79,16.75.41.31.43-.51q15.63-19.38,31.28-38.76c.38-.48.33-.67-.13-1q-4.12-3.27-8.21-6.62c-.5-.41-.72-.43-1.15.11Q337,280.93,325.25,295.5c-.43.53-.68.65-1.27.16-3.62-3-7.29-5.9-10.94-8.84-.28-.22-.48-.55-.88-.05q-3.45,4.35-7,8.65C304.93,295.74,305,295.89,305.29,296.11Zm52.78-23.25q-4.12-3.27-8.21-6.62c-.5-.41-.72-.43-1.15.11Q337,280.93,325.25,295.5c-.43.53-.68.65-1.27.16-3.62-3-7.29-5.9-10.94-8.84-.28-.22-.48-.55-.88-.05q-3.45,4.35-7,8.65c-.26.32-.19.47.1.69l20.79,16.75.41.31.43-.51q15.63-19.38,31.28-38.76C358.58,273.42,358.53,273.23,358.07,272.86Zm0,0q-4.12-3.27-8.21-6.62c-.5-.41-.72-.43-1.15.11Q337,280.93,325.25,295.5c-.43.53-.68.65-1.27.16-3.62-3-7.29-5.9-10.94-8.84-.28-.22-.48-.55-.88-.05q-3.45,4.35-7,8.65c-.26.32-.19.47.1.69l20.79,16.75.41.31.43-.51q15.63-19.38,31.28-38.76C358.58,273.42,358.53,273.23,358.07,272.86Zm0,0q-4.12-3.27-8.21-6.62c-.5-.41-.72-.43-1.15.11Q337,280.93,325.25,295.5c-.43.53-.68.65-1.27.16-3.62-3-7.29-5.9-10.94-8.84-.28-.22-.48-.55-.88-.05q-3.45,4.35-7,8.65c-.26.32-.19.47.1.69l20.79,16.75.41.31.43-.51q15.63-19.38,31.28-38.76C358.58,273.42,358.53,273.23,358.07,272.86Zm0,0q-4.12-3.27-8.21-6.62c-.5-.41-.72-.43-1.15.11Q337,280.93,325.25,295.5c-.43.53-.68.65-1.27.16-3.62-3-7.29-5.9-10.94-8.84-.28-.22-.48-.55-.88-.05q-3.45,4.35-7,8.65c-.26.32-.19.47.1.69l20.79,16.75.41.31.43-.51q15.63-19.38,31.28-38.76C358.58,273.42,358.53,273.23,358.07,272.86Zm0,0q-4.12-3.27-8.21-6.62c-.5-.41-.72-.43-1.15.11Q337,280.93,325.25,295.5c-.43.53-.68.65-1.27.16-3.62-3-7.29-5.9-10.94-8.84-.28-.22-.48-.55-.88-.05q-3.45,4.35-7,8.65c-.26.32-.19.47.1.69l20.79,16.75.41.31.43-.51q15.63-19.38,31.28-38.76C358.58,273.42,358.53,273.23,358.07,272.86Zm0,0q-4.12-3.27-8.21-6.62c-.5-.41-.72-.43-1.15.11Q337,280.93,325.25,295.5c-.43.53-.68.65-1.27.16-3.62-3-7.29-5.9-10.94-8.84-.28-.22-.48-.55-.88-.05q-3.45,4.35-7,8.65c-.26.32-.19.47.1.69l20.79,16.75.41.31.43-.51q15.63-19.38,31.28-38.76C358.58,273.42,358.53,273.23,358.07,272.86Zm0,0q-4.12-3.27-8.21-6.62c-.5-.41-.72-.43-1.15.11Q337,280.93,325.25,295.5c-.43.53-.68.65-1.27.16-3.62-3-7.29-5.9-10.94-8.84-.28-.22-.48-.55-.88-.05q-3.45,4.35-7,8.65c-.26.32-.19.47.1.69l20.79,16.75.41.31.43-.51q15.63-19.38,31.28-38.76C358.58,273.42,358.53,273.23,358.07,272.86Zm0,0q-4.12-3.27-8.21-6.62c-.5-.41-.72-.43-1.15.11Q337,280.93,325.25,295.5c-.43.53-.68.65-1.27.16-3.62-3-7.29-5.9-10.94-8.84-.28-.22-.48-.55-.88-.05q-3.45,4.35-7,8.65c-.26.32-.19.47.1.69l20.79,16.75.41.31.43-.51q15.63-19.38,31.28-38.76C358.58,273.42,358.53,273.23,358.07,272.86Zm0,0q-4.12-3.27-8.21-6.62c-.5-.41-.72-.43-1.15.11Q337,280.93,325.25,295.5c-.43.53-.68.65-1.27.16-3.62-3-7.29-5.9-10.94-8.84-.28-.22-.48-.55-.88-.05q-3.45,4.35-7,8.65c-.26.32-.19.47.1.69l20.79,16.75.41.31.43-.51q15.63-19.38,31.28-38.76C358.58,273.42,358.53,273.23,358.07,272.86Zm0,0q-4.12-3.27-8.21-6.62c-.5-.41-.72-.43-1.15.11Q337,280.93,325.25,295.5c-.43.53-.68.65-1.27.16-3.62-3-7.29-5.9-10.94-8.84-.28-.22-.48-.55-.88-.05q-3.45,4.35-7,8.65c-.26.32-.19.47.1.69l20.79,16.75.41.31.43-.51q15.63-19.38,31.28-38.76C358.58,273.42,358.53,273.23,358.07,272.86Zm0,0q-4.12-3.27-8.21-6.62c-.5-.41-.72-.43-1.15.11Q337,280.93,325.25,295.5c-.43.53-.68.65-1.27.16-3.62-3-7.29-5.9-10.94-8.84-.28-.22-.48-.55-.88-.05q-3.45,4.35-7,8.65c-.26.32-.19.47.1.69l20.79,16.75.41.31.43-.51q15.63-19.38,31.28-38.76C358.58,273.42,358.53,273.23,358.07,272.86Zm0,0q-4.12-3.27-8.21-6.62c-.5-.41-.72-.43-1.15.11Q337,280.93,325.25,295.5c-.43.53-.68.65-1.27.16-3.62-3-7.29-5.9-10.94-8.84-.28-.22-.48-.55-.88-.05q-3.45,4.35-7,8.65c-.26.32-.19.47.1.69l20.79,16.75.41.31.43-.51q15.63-19.38,31.28-38.76C358.58,273.42,358.53,273.23,358.07,272.86Zm0,0q-4.12-3.27-8.21-6.62c-.5-.41-.72-.43-1.15.11Q337,280.93,325.25,295.5c-.43.53-.68.65-1.27.16-3.62-3-7.29-5.9-10.94-8.84-.28-.22-.48-.55-.88-.05q-3.45,4.35-7,8.65c-.26.32-.19.47.1.69l20.79,16.75.41.31.43-.51q15.63-19.38,31.28-38.76C358.58,273.42,358.53,273.23,358.07,272.86Zm0,0q-4.12-3.27-8.21-6.62c-.5-.41-.72-.43-1.15.11Q337,280.93,325.25,295.5c-.43.53-.68.65-1.27.16-3.62-3-7.29-5.9-10.94-8.84-.28-.22-.48-.55-.88-.05q-3.45,4.35-7,8.65c-.26.32-.19.47.1.69l20.79,16.75.41.31.43-.51q15.63-19.38,31.28-38.76C358.58,273.42,358.53,273.23,358.07,272.86Zm0,0q-4.12-3.27-8.21-6.62c-.5-.41-.72-.43-1.15.11Q337,280.93,325.25,295.5c-.43.53-.68.65-1.27.16-3.62-3-7.29-5.9-10.94-8.84-.28-.22-.48-.55-.88-.05q-3.45,4.35-7,8.65c-.26.32-.19.47.1.69l20.79,16.75.41.31.43-.51q15.63-19.38,31.28-38.76C358.58,273.42,358.53,273.23,358.07,272.86Zm0,0q-4.12-3.27-8.21-6.62c-.5-.41-.72-.43-1.15.11Q337,280.93,325.25,295.5c-.43.53-.68.65-1.27.16-3.62-3-7.29-5.9-10.94-8.84-.28-.22-.48-.55-.88-.05q-3.45,4.35-7,8.65c-.26.32-.19.47.1.69l20.79,16.75.41.31.43-.51q15.63-19.38,31.28-38.76C358.58,273.42,358.53,273.23,358.07,272.86Zm0,0q-4.12-3.27-8.21-6.62c-.5-.41-.72-.43-1.15.11Q337,280.93,325.25,295.5c-.43.53-.68.65-1.27.16-3.62-3-7.29-5.9-10.94-8.84-.28-.22-.48-.55-.88-.05q-3.45,4.35-7,8.65c-.26.32-.19.47.1.69l20.79,16.75.41.31.43-.51q15.63-19.38,31.28-38.76C358.58,273.42,358.53,273.23,358.07,272.86ZM358.46,553l.36,3.35,1.24-3.52Zm-.39-280.14q-4.12-3.27-8.21-6.62c-.5-.41-.72-.43-1.15.11Q337,280.93,325.25,295.5c-.43.53-.68.65-1.27.16-3.62-3-7.29-5.9-10.94-8.84-.28-.22-.48-.55-.88-.05q-3.45,4.35-7,8.65c-.26.32-.19.47.1.69l20.79,16.75.41.31.43-.51q15.63-19.38,31.28-38.76C358.58,273.42,358.53,273.23,358.07,272.86Zm0,0q-4.12-3.27-8.21-6.62c-.5-.41-.72-.43-1.15.11Q337,280.93,325.25,295.5c-.43.53-.68.65-1.27.16-3.62-3-7.29-5.9-10.94-8.84-.28-.22-.48-.55-.88-.05q-3.45,4.35-7,8.65c-.26.32-.19.47.1.69l20.79,16.75.41.31.43-.51q15.63-19.38,31.28-38.76C358.58,273.42,358.53,273.23,358.07,272.86Zm0,0q-4.12-3.27-8.21-6.62c-.5-.41-.72-.43-1.15.11Q337,280.93,325.25,295.5c-.43.53-.68.65-1.27.16-3.62-3-7.29-5.9-10.94-8.84-.28-.22-.48-.55-.88-.05q-3.45,4.35-7,8.65c-.26.32-.19.47.1.69l20.79,16.75.41.31.43-.51q15.63-19.38,31.28-38.76C358.58,273.42,358.53,273.23,358.07,272.86Zm0,0q-4.12-3.27-8.21-6.62c-.5-.41-.72-.43-1.15.11Q337,280.93,325.25,295.5c-.43.53-.68.65-1.27.16-3.62-3-7.29-5.9-10.94-8.84-.28-.22-.48-.55-.88-.05q-3.45,4.35-7,8.65c-.26.32-.19.47.1.69l20.79,16.75.41.31.43-.51q15.63-19.38,31.28-38.76C358.58,273.42,358.53,273.23,358.07,272.86Zm0,0q-4.12-3.27-8.21-6.62c-.5-.41-.72-.43-1.15.11Q337,280.93,325.25,295.5c-.43.53-.68.65-1.27.16-3.62-3-7.29-5.9-10.94-8.84-.28-.22-.48-.55-.88-.05q-3.45,4.35-7,8.65c-.26.32-.19.47.1.69l20.79,16.75.41.31.43-.51q15.63-19.38,31.28-38.76C358.58,273.42,358.53,273.23,358.07,272.86Zm0,0q-4.12-3.27-8.21-6.62c-.5-.41-.72-.43-1.15.11Q337,280.93,325.25,295.5c-.43.53-.68.65-1.27.16-3.62-3-7.29-5.9-10.94-8.84-.28-.22-.48-.55-.88-.05q-3.45,4.35-7,8.65c-.26.32-.19.47.1.69l20.79,16.75.41.31.43-.51q15.63-19.38,31.28-38.76C358.58,273.42,358.53,273.23,358.07,272.86Zm0,0q-4.12-3.27-8.21-6.62c-.5-.41-.72-.43-1.15.11Q337,280.93,325.25,295.5c-.43.53-.68.65-1.27.16-3.62-3-7.29-5.9-10.94-8.84-.28-.22-.48-.55-.88-.05q-3.45,4.35-7,8.65c-.26.32-.19.47.1.69l20.79,16.75.41.31.43-.51q15.63-19.38,31.28-38.76C358.58,273.42,358.53,273.23,358.07,272.86Zm0,0q-4.12-3.27-8.21-6.62c-.5-.41-.72-.43-1.15.11Q337,280.93,325.25,295.5c-.43.53-.68.65-1.27.16-3.62-3-7.29-5.9-10.94-8.84-.28-.22-.48-.55-.88-.05q-3.45,4.35-7,8.65c-.26.32-.19.47.1.69l20.79,16.75.41.31.43-.51q15.63-19.38,31.28-38.76C358.58,273.42,358.53,273.23,358.07,272.86Zm0,0q-4.12-3.27-8.21-6.62c-.5-.41-.72-.43-1.15.11Q337,280.93,325.25,295.5c-.43.53-.68.65-1.27.16-3.62-3-7.29-5.9-10.94-8.84-.28-.22-.48-.55-.88-.05q-3.45,4.35-7,8.65c-.26.32-.19.47.1.69l20.79,16.75.41.31.43-.51q15.63-19.38,31.28-38.76C358.58,273.42,358.53,273.23,358.07,272.86Zm0,0q-4.12-3.27-8.21-6.62c-.5-.41-.72-.43-1.15.11Q337,280.93,325.25,295.5c-.43.53-.68.65-1.27.16-3.62-3-7.29-5.9-10.94-8.84-.28-.22-.48-.55-.88-.05q-3.45,4.35-7,8.65c-.26.32-.19.47.1.69l20.79,16.75.41.31.43-.51q15.63-19.38,31.28-38.76C358.58,273.42,358.53,273.23,358.07,272.86Zm24,159.31,16.82,10,.15-.41,13.27-37.87.12-.34Z" transform="translate(-76.75 -202.78)"/><path class="cls-1" d="M271.45,548.47l6.27,1.41c1.68.39,3.36.77,5,1.19a1.19,1.19,0,0,0,1.26-.39l7.58-7.58c.16-.16.28-.51.57-.37s.13.41.15.62c.32,3.58.66,7.16.95,10.75a1.1,1.1,0,0,0,.68,1l8.56,4.36c.4.21.8.42,1.19.64.16.09.46.07.43.33s-.3.24-.47.32c-3,1.27-6,2.58-9,3.77a2.73,2.73,0,0,0-2,2.48c-.39,3.22-1,6.42-1.5,9.63,0,.21,0,.51-.22.58s-.36-.23-.5-.38c-2.36-2.69-4.72-5.38-7.05-8.09a1.23,1.23,0,0,0-1.29-.47c-3.52.59-7.06,1.13-10.59,1.67-.2,0-.47.22-.62,0s.07-.37.17-.54c1.72-2.87,3.41-5.76,5.18-8.6a2.19,2.19,0,0,0,.16-2.57c-1.67-3.07-3.21-6.21-4.8-9.33C271.56,548.82,271.54,548.72,271.45,548.47Z" transform="translate(-76.75 -202.78)"/><path class="cls-1" d="M268.29,545.69c-.1.35-.41.37-.64.47-3.25,1.37-6.48,2.76-9.74,4.1a1.42,1.42,0,0,0-1,1.25c-.54,3.51-1.11,7-1.67,10.51,0,.19,0,.46-.18.54s-.38-.19-.52-.35q-2.34-2.65-4.67-5.32l14.15-13.37,2.35,1.21Z" transform="translate(-76.75 -202.78)"/><path class="cls-4" d="M489.86,448.59l-.13-1-1.35-10.37-54.7-32.45-.16-.1-.19-.11-13.52-8-.14.14L417,399.17l0,0,0,0,0,0-4.52,4.27L382,432.17l16.82,10,97.72,58Zm-112.95,83-6.42.7.36,3.39,6.42-.7Zm0,0-6.42.7.36,3.39,6.42-.7Zm0,0-6.42.7.36,3.39,6.42-.7Zm0,0-6.42.7.36,3.39,6.42-.7Zm0,0-6.42.7.36,3.39,6.42-.7Zm0,0h0l-6.42.7.36,3.39,6.42-.7Zm0,0h0l-6.42.7.36,3.39,6.42-.7Zm0,0h0l-6.42.7.36,3.39,6.42-.7Zm0,0h0l-6.42.7.36,3.39,6.42-.7Zm0,0h0l-6.42.7.36,3.39,6.42-.7Zm0,0h0l-6.42.7.36,3.39,6.42-.7Zm0,0h0l-6.42.7.36,3.39,6.42-.7Zm0,0h0l-6.42.7.36,3.39,6.42-.7Zm0,0h0l-6.42.7.36,3.39,6.42-.7Zm0,0h0l-6.42.7.36,3.39,6.42-.7Zm126.47,20.76L384.88,482l-34.17-20.27-23.5,22.18-1,1L285,523.74l-21,19.78-14.15,13.37-10.22,9.63-5.46,5.15L238,601.33l2.67,5.52,1.16,2.4,5.62,7.66L253.8,622l6.9,3.57,6.64,2h10l7.77-.8-4.53-44,33.34-3.43,4.46,43.42,15.8-1.89,139.25-16.66,7-2.72,5.78-3.57,6.13-5.45,5.45-6.47,3.91-6,1.88-7V553.25Zm-176.83,4.07L301.63,559h0l-3.17.34-.22-2.07h0l-3.38-31.74,29-3.08h0l4.84-.51,3.59,33.83Zm71.72-7.62-12.22,1.3.88,8.15-24.21,2.63-.89-8.21-1.78.19-1.6.17.36,3.35v0l.53,4.84-2.31.25-21.58,2.35-2.61-24,4.18-.45-.36-3.39-4.18.45-2.61-24,23.88-2.6,1,9.43,3.39-.36-1-9.43L376,507.34l5.34-.58,1,9.5,13.18-1.4,13.63-1.45,3.59,33.82Zm-21.37-17.21-6.42.7.36,3.39,6.42-.7-.35-3.39Zm0,0h0l-6.42.7.36,3.39,6.42-.7Zm0,0h0l-6.42.7.36,3.39,6.42-.7Zm0,0h0l-6.42.7.36,3.39,6.42-.7Zm0,0h0l-6.42.7.36,3.39,6.42-.7Zm0,0h0l-6.42.7.36,3.39,6.42-.7Zm0,0h0l-6.42.7.36,3.39,6.42-.7Zm0,0h0l-6.42.7.36,3.39,6.42-.7Zm0,0h0l-6.42.7.36,3.39,6.42-.7Zm0,0-6.42.7.36,3.39,6.42-.7Zm0,0-6.42.7.36,3.39,6.42-.7Zm0,0-6.42.7.36,3.39,6.42-.7Zm0,0-6.42.7.36,3.39,6.42-.7Zm0,0-6.42.7.36,3.39,6.42-.7Zm-18.84-258.7q-4.12-3.27-8.21-6.62c-.5-.41-.72-.43-1.15.11Q337,280.93,325.25,295.5c-.43.53-.68.65-1.27.16-3.62-3-7.29-5.9-10.94-8.84-.28-.22-.48-.55-.88-.05q-3.45,4.35-7,8.65c-.26.32-.19.47.1.69l20.79,16.75.41.31.43-.51q15.63-19.38,31.28-38.76C358.58,273.42,358.53,273.23,358.07,272.86Zm0,0q-4.12-3.27-8.21-6.62c-.5-.41-.72-.43-1.15.11Q337,280.93,325.25,295.5c-.43.53-.68.65-1.27.16-3.62-3-7.29-5.9-10.94-8.84-.28-.22-.48-.55-.88-.05q-3.45,4.35-7,8.65c-.26.32-.19.47.1.69l20.79,16.75.41.31.43-.51q15.63-19.38,31.28-38.76C358.58,273.42,358.53,273.23,358.07,272.86Zm0,0q-4.12-3.27-8.21-6.62c-.5-.41-.72-.43-1.15.11Q337,280.93,325.25,295.5c-.43.53-.68.65-1.27.16-3.62-3-7.29-5.9-10.94-8.84-.28-.22-.48-.55-.88-.05q-3.45,4.35-7,8.65c-.26.32-.19.47.1.69l20.79,16.75.41.31.43-.51q15.63-19.38,31.28-38.76C358.58,273.42,358.53,273.23,358.07,272.86Zm0,0q-4.12-3.27-8.21-6.62c-.5-.41-.72-.43-1.15.11Q337,280.93,325.25,295.5c-.43.53-.68.65-1.27.16-3.62-3-7.29-5.9-10.94-8.84-.28-.22-.48-.55-.88-.05q-3.45,4.35-7,8.65c-.26.32-.19.47.1.69l20.79,16.75.41.31.43-.51q15.63-19.38,31.28-38.76C358.58,273.42,358.53,273.23,358.07,272.86Zm0,0q-4.12-3.27-8.21-6.62c-.5-.41-.72-.43-1.15.11Q337,280.93,325.25,295.5c-.43.53-.68.65-1.27.16-3.62-3-7.29-5.9-10.94-8.84-.28-.22-.48-.55-.88-.05q-3.45,4.35-7,8.65c-.26.32-.19.47.1.69l20.79,16.75.41.31.43-.51q15.63-19.38,31.28-38.76C358.58,273.42,358.53,273.23,358.07,272.86Zm0,0q-4.12-3.27-8.21-6.62c-.5-.41-.72-.43-1.15.11Q337,280.93,325.25,295.5c-.43.53-.68.65-1.27.16-3.62-3-7.29-5.9-10.94-8.84-.28-.22-.48-.55-.88-.05q-3.45,4.35-7,8.65c-.26.32-.19.47.1.69l20.79,16.75.41.31.43-.51q15.63-19.38,31.28-38.76C358.58,273.42,358.53,273.23,358.07,272.86Zm0,0q-4.12-3.27-8.21-6.62c-.5-.41-.72-.43-1.15.11Q337,280.93,325.25,295.5c-.43.53-.68.65-1.27.16-3.62-3-7.29-5.9-10.94-8.84-.28-.22-.48-.55-.88-.05q-3.45,4.35-7,8.65c-.26.32-.19.47.1.69l20.79,16.75.41.31.43-.51q15.63-19.38,31.28-38.76C358.58,273.42,358.53,273.23,358.07,272.86Zm0,0q-4.12-3.27-8.21-6.62c-.5-.41-.72-.43-1.15.11Q337,280.93,325.25,295.5c-.43.53-.68.65-1.27.16-3.62-3-7.29-5.9-10.94-8.84-.28-.22-.48-.55-.88-.05q-3.45,4.35-7,8.65c-.26.32-.19.47.1.69l20.79,16.75.41.31.43-.51q15.63-19.38,31.28-38.76C358.58,273.42,358.53,273.23,358.07,272.86Zm0,0q-4.12-3.27-8.21-6.62c-.5-.41-.72-.43-1.15.11Q337,280.93,325.25,295.5c-.43.53-.68.65-1.27.16-3.62-3-7.29-5.9-10.94-8.84-.28-.22-.48-.55-.88-.05q-3.45,4.35-7,8.65c-.26.32-.19.47.1.69l20.79,16.75.41.31.43-.51q15.63-19.38,31.28-38.76C358.58,273.42,358.53,273.23,358.07,272.86Zm0,0q-4.12-3.27-8.21-6.62c-.5-.41-.72-.43-1.15.11Q337,280.93,325.25,295.5c-.43.53-.68.65-1.27.16-3.62-3-7.29-5.9-10.94-8.84-.28-.22-.48-.55-.88-.05q-3.45,4.35-7,8.65c-.26.32-.19.47.1.69l20.79,16.75.41.31.43-.51q15.63-19.38,31.28-38.76C358.58,273.42,358.53,273.23,358.07,272.86Zm0,0q-4.12-3.27-8.21-6.62c-.5-.41-.72-.43-1.15.11Q337,280.93,325.25,295.5c-.43.53-.68.65-1.27.16-3.62-3-7.29-5.9-10.94-8.84-.28-.22-.48-.55-.88-.05q-3.45,4.35-7,8.65c-.26.32-.19.47.1.69l20.79,16.75.41.31.43-.51q15.63-19.38,31.28-38.76C358.58,273.42,358.53,273.23,358.07,272.86Zm0,0q-4.12-3.27-8.21-6.62c-.5-.41-.72-.43-1.15.11Q337,280.93,325.25,295.5c-.43.53-.68.65-1.27.16-3.62-3-7.29-5.9-10.94-8.84-.28-.22-.48-.55-.88-.05q-3.45,4.35-7,8.65c-.26.32-.19.47.1.69l20.79,16.75.41.31.43-.51q15.63-19.38,31.28-38.76C358.58,273.42,358.53,273.23,358.07,272.86Zm0,0q-4.12-3.27-8.21-6.62c-.5-.41-.72-.43-1.15.11Q337,280.93,325.25,295.5c-.43.53-.68.65-1.27.16-3.62-3-7.29-5.9-10.94-8.84-.28-.22-.48-.55-.88-.05q-3.45,4.35-7,8.65c-.26.32-.19.47.1.69l20.79,16.75.41.31.43-.51q15.63-19.38,31.28-38.76C358.58,273.42,358.53,273.23,358.07,272.86Zm0,0q-4.12-3.27-8.21-6.62c-.5-.41-.72-.43-1.15.11Q337,280.93,325.25,295.5c-.43.53-.68.65-1.27.16-3.62-3-7.29-5.9-10.94-8.84-.28-.22-.48-.55-.88-.05q-3.45,4.35-7,8.65c-.26.32-.19.47.1.69l20.79,16.75.41.31.43-.51q15.63-19.38,31.28-38.76C358.58,273.42,358.53,273.23,358.07,272.86Zm0,0q-4.12-3.27-8.21-6.62c-.5-.41-.72-.43-1.15.11Q337,280.93,325.25,295.5c-.43.53-.68.65-1.27.16-3.62-3-7.29-5.9-10.94-8.84-.28-.22-.48-.55-.88-.05q-3.45,4.35-7,8.65c-.26.32-.19.47.1.69l20.79,16.75.41.31.43-.51q15.63-19.38,31.28-38.76C358.58,273.42,358.53,273.23,358.07,272.86Zm0,0q-4.12-3.27-8.21-6.62c-.5-.41-.72-.43-1.15.11Q337,280.93,325.25,295.5c-.43.53-.68.65-1.27.16-3.62-3-7.29-5.9-10.94-8.84-.28-.22-.48-.55-.88-.05q-3.45,4.35-7,8.65c-.26.32-.19.47.1.69l20.79,16.75.41.31.43-.51q15.63-19.38,31.28-38.76C358.58,273.42,358.53,273.23,358.07,272.86Zm0,0q-4.12-3.27-8.21-6.62c-.5-.41-.72-.43-1.15.11Q337,280.93,325.25,295.5c-.43.53-.68.65-1.27.16-3.62-3-7.29-5.9-10.94-8.84-.28-.22-.48-.55-.88-.05q-3.45,4.35-7,8.65c-.26.32-.19.47.1.69l20.79,16.75.41.31.43-.51q15.63-19.38,31.28-38.76C358.58,273.42,358.53,273.23,358.07,272.86Zm0,0q-4.12-3.27-8.21-6.62c-.5-.41-.72-.43-1.15.11Q337,280.93,325.25,295.5c-.43.53-.68.65-1.27.16-3.62-3-7.29-5.9-10.94-8.84-.28-.22-.48-.55-.88-.05q-3.45,4.35-7,8.65c-.26.32-.19.47.1.69l20.79,16.75.41.31.43-.51q15.63-19.38,31.28-38.76C358.58,273.42,358.53,273.23,358.07,272.86Zm0,0q-4.12-3.27-8.21-6.62c-.5-.41-.72-.43-1.15.11Q337,280.93,325.25,295.5c-.43.53-.68.65-1.27.16-3.62-3-7.29-5.9-10.94-8.84-.28-.22-.48-.55-.88-.05q-3.45,4.35-7,8.65c-.26.32-.19.47.1.69l20.79,16.75.41.31.43-.51q15.63-19.38,31.28-38.76C358.58,273.42,358.53,273.23,358.07,272.86Zm0,0q-4.12-3.27-8.21-6.62c-.5-.41-.72-.43-1.15.11Q337,280.93,325.25,295.5c-.43.53-.68.65-1.27.16-3.62-3-7.29-5.9-10.94-8.84-.28-.22-.48-.55-.88-.05q-3.45,4.35-7,8.65c-.26.32-.19.47.1.69l20.79,16.75.41.31.43-.51q15.63-19.38,31.28-38.76C358.58,273.42,358.53,273.23,358.07,272.86Zm0,0q-4.12-3.27-8.21-6.62c-.5-.41-.72-.43-1.15.11Q337,280.93,325.25,295.5c-.43.53-.68.65-1.27.16-3.62-3-7.29-5.9-10.94-8.84-.28-.22-.48-.55-.88-.05q-3.45,4.35-7,8.65c-.26.32-.19.47.1.69l20.79,16.75.41.31.43-.51q15.63-19.38,31.28-38.76C358.58,273.42,358.53,273.23,358.07,272.86Zm0,0q-4.12-3.27-8.21-6.62c-.5-.41-.72-.43-1.15.11Q337,280.93,325.25,295.5c-.43.53-.68.65-1.27.16-3.62-3-7.29-5.9-10.94-8.84-.28-.22-.48-.55-.88-.05q-3.45,4.35-7,8.65c-.26.32-.19.47.1.69l20.79,16.75.41.31.43-.51q15.63-19.38,31.28-38.76C358.58,273.42,358.53,273.23,358.07,272.86Zm0,0q-4.12-3.27-8.21-6.62c-.5-.41-.72-.43-1.15.11Q337,280.93,325.25,295.5c-.43.53-.68.65-1.27.16-3.62-3-7.29-5.9-10.94-8.84-.28-.22-.48-.55-.88-.05q-3.45,4.35-7,8.65c-.26.32-.19.47.1.69l20.79,16.75.41.31.43-.51q15.63-19.38,31.28-38.76C358.58,273.42,358.53,273.23,358.07,272.86Zm0,0q-4.12-3.27-8.21-6.62c-.5-.41-.72-.43-1.15.11Q337,280.93,325.25,295.5c-.43.53-.68.65-1.27.16-3.62-3-7.29-5.9-10.94-8.84-.28-.22-.48-.55-.88-.05q-3.45,4.35-7,8.65c-.26.32-.19.47.1.69l20.79,16.75.41.31.43-.51q15.63-19.38,31.28-38.76C358.58,273.42,358.53,273.23,358.07,272.86Zm0,0q-4.12-3.27-8.21-6.62c-.5-.41-.72-.43-1.15.11Q337,280.93,325.25,295.5c-.43.53-.68.65-1.27.16-3.62-3-7.29-5.9-10.94-8.84-.28-.22-.48-.55-.88-.05q-3.45,4.35-7,8.65c-.26.32-.19.47.1.69l20.79,16.75.41.31.43-.51q15.63-19.38,31.28-38.76C358.58,273.42,358.53,273.23,358.07,272.86Zm0,0q-4.12-3.27-8.21-6.62c-.5-.41-.72-.43-1.15.11Q337,280.93,325.25,295.5c-.43.53-.68.65-1.27.16-3.62-3-7.29-5.9-10.94-8.84-.28-.22-.48-.55-.88-.05q-3.45,4.35-7,8.65c-.26.32-.19.47.1.69l20.79,16.75.41.31.43-.51q15.63-19.38,31.28-38.76C358.58,273.42,358.53,273.23,358.07,272.86Zm118.08,70.49L472,311.29l-2.68-5.1-3.83-5.49L463,298l-2-2.16-4.34-4.09L345.55,206.87l-6.47-3.45-5-.64H319.68l-.46.15-.63.2L312.91,205l-7,3.7-.44.56L210.06,329.42l-2.89,5.45-.66,5.72-.45,6.7,0,.25,0,.36,8.54,68v0l3.57,28.43h0l.43,3.4,1.86,14.85L227.76,520l30-28.32-2.31-23.23-1-10.42-.58-5.83-2.37-23.88-4.13-41.51,51.32-5.1,2.55,25.65h0L305.15,447l8-7.54,31.34-29.57,37.77-35.66,31.34-29.58,4.34,2.58,33.23,19.71L481.58,385ZM337,328.08a39.6,39.6,0,1,1,35.21-43.57A39.61,39.61,0,0,1,337,328.08Zm21-55.22q-4.12-3.27-8.21-6.62c-.5-.41-.72-.43-1.15.11Q337,280.93,325.25,295.5c-.43.53-.68.65-1.27.16-3.62-3-7.29-5.9-10.94-8.84-.28-.22-.48-.55-.88-.05q-3.45,4.35-7,8.65c-.26.32-.19.47.1.69l20.79,16.75.41.31.43-.51q15.63-19.38,31.28-38.76C358.58,273.42,358.53,273.23,358.07,272.86Zm0,0q-4.12-3.27-8.21-6.62c-.5-.41-.72-.43-1.15.11Q337,280.93,325.25,295.5c-.43.53-.68.65-1.27.16-3.62-3-7.29-5.9-10.94-8.84-.28-.22-.48-.55-.88-.05q-3.45,4.35-7,8.65c-.26.32-.19.47.1.69l20.79,16.75.41.31.43-.51q15.63-19.38,31.28-38.76C358.58,273.42,358.53,273.23,358.07,272.86Zm0,0q-4.12-3.27-8.21-6.62c-.5-.41-.72-.43-1.15.11Q337,280.93,325.25,295.5c-.43.53-.68.65-1.27.16-3.62-3-7.29-5.9-10.94-8.84-.28-.22-.48-.55-.88-.05q-3.45,4.35-7,8.65c-.26.32-.19.47.1.69l20.79,16.75.41.31.43-.51q15.63-19.38,31.28-38.76C358.58,273.42,358.53,273.23,358.07,272.86Zm0,0q-4.12-3.27-8.21-6.62c-.5-.41-.72-.43-1.15.11Q337,280.93,325.25,295.5c-.43.53-.68.65-1.27.16-3.62-3-7.29-5.9-10.94-8.84-.28-.22-.48-.55-.88-.05q-3.45,4.35-7,8.65c-.26.32-.19.47.1.69l20.79,16.75.41.31.43-.51q15.63-19.38,31.28-38.76C358.58,273.42,358.53,273.23,358.07,272.86Zm0,0q-4.12-3.27-8.21-6.62c-.5-.41-.72-.43-1.15.11Q337,280.93,325.25,295.5c-.43.53-.68.65-1.27.16-3.62-3-7.29-5.9-10.94-8.84-.28-.22-.48-.55-.88-.05q-3.45,4.35-7,8.65c-.26.32-.19.47.1.69l20.79,16.75.41.31.43-.51q15.63-19.38,31.28-38.76C358.58,273.42,358.53,273.23,358.07,272.86Zm0,0q-4.12-3.27-8.21-6.62c-.5-.41-.72-.43-1.15.11Q337,280.93,325.25,295.5c-.43.53-.68.65-1.27.16-3.62-3-7.29-5.9-10.94-8.84-.28-.22-.48-.55-.88-.05q-3.45,4.35-7,8.65c-.26.32-.19.47.1.69l20.79,16.75.41.31.43-.51q15.63-19.38,31.28-38.76C358.58,273.42,358.53,273.23,358.07,272.86Zm0,0q-4.12-3.27-8.21-6.62c-.5-.41-.72-.43-1.15.11Q337,280.93,325.25,295.5c-.43.53-.68.65-1.27.16-3.62-3-7.29-5.9-10.94-8.84-.28-.22-.48-.55-.88-.05q-3.45,4.35-7,8.65c-.26.32-.19.47.1.69l20.79,16.75.41.31.43-.51q15.63-19.38,31.28-38.76C358.58,273.42,358.53,273.23,358.07,272.86Zm0,0q-4.12-3.27-8.21-6.62c-.5-.41-.72-.43-1.15.11Q337,280.93,325.25,295.5c-.43.53-.68.65-1.27.16-3.62-3-7.29-5.9-10.94-8.84-.28-.22-.48-.55-.88-.05q-3.45,4.35-7,8.65c-.26.32-.19.47.1.69l20.79,16.75.41.31.43-.51q15.63-19.38,31.28-38.76C358.58,273.42,358.53,273.23,358.07,272.86Zm0,0q-4.12-3.27-8.21-6.62c-.5-.41-.72-.43-1.15.11Q337,280.93,325.25,295.5c-.43.53-.68.65-1.27.16-3.62-3-7.29-5.9-10.94-8.84-.28-.22-.48-.55-.88-.05q-3.45,4.35-7,8.65c-.26.32-.19.47.1.69l20.79,16.75.41.31.43-.51q15.63-19.38,31.28-38.76C358.58,273.42,358.53,273.23,358.07,272.86Zm0,0q-4.12-3.27-8.21-6.62c-.5-.41-.72-.43-1.15.11Q337,280.93,325.25,295.5c-.43.53-.68.65-1.27.16-3.62-3-7.29-5.9-10.94-8.84-.28-.22-.48-.55-.88-.05q-3.45,4.35-7,8.65c-.26.32-.19.47.1.69l20.79,16.75.41.31.43-.51q15.63-19.38,31.28-38.76C358.58,273.42,358.53,273.23,358.07,272.86Zm0,0q-4.12-3.27-8.21-6.62c-.5-.41-.72-.43-1.15.11Q337,280.93,325.25,295.5c-.43.53-.68.65-1.27.16-3.62-3-7.29-5.9-10.94-8.84-.28-.22-.48-.55-.88-.05q-3.45,4.35-7,8.65c-.26.32-.19.47.1.69l20.79,16.75.41.31.43-.51q15.63-19.38,31.28-38.76C358.58,273.42,358.53,273.23,358.07,272.86Zm0,0q-4.12-3.27-8.21-6.62c-.5-.41-.72-.43-1.15.11Q337,280.93,325.25,295.5c-.43.53-.68.65-1.27.16-3.62-3-7.29-5.9-10.94-8.84-.28-.22-.48-.55-.88-.05q-3.45,4.35-7,8.65c-.26.32-.19.47.1.69l20.79,16.75.41.31.43-.51q15.63-19.38,31.28-38.76C358.58,273.42,358.53,273.23,358.07,272.86Zm0,0q-4.12-3.27-8.21-6.62c-.5-.41-.72-.43-1.15.11Q337,280.93,325.25,295.5c-.43.53-.68.65-1.27.16-3.62-3-7.29-5.9-10.94-8.84-.28-.22-.48-.55-.88-.05q-3.45,4.35-7,8.65c-.26.32-.19.47.1.69l20.79,16.75.41.31.43-.51q15.63-19.38,31.28-38.76C358.58,273.42,358.53,273.23,358.07,272.86Zm0,0q-4.12-3.27-8.21-6.62c-.5-.41-.72-.43-1.15.11Q337,280.93,325.25,295.5c-.43.53-.68.65-1.27.16-3.62-3-7.29-5.9-10.94-8.84-.28-.22-.48-.55-.88-.05q-3.45,4.35-7,8.65c-.26.32-.19.47.1.69l20.79,16.75.41.31.43-.51q15.63-19.38,31.28-38.76C358.58,273.42,358.53,273.23,358.07,272.86Zm0,0q-4.12-3.27-8.21-6.62c-.5-.41-.72-.43-1.15.11Q337,280.93,325.25,295.5c-.43.53-.68.65-1.27.16-3.62-3-7.29-5.9-10.94-8.84-.28-.22-.48-.55-.88-.05q-3.45,4.35-7,8.65c-.26.32-.19.47.1.69l20.79,16.75.41.31.43-.51q15.63-19.38,31.28-38.76C358.58,273.42,358.53,273.23,358.07,272.86Zm0,0q-4.12-3.27-8.21-6.62c-.5-.41-.72-.43-1.15.11Q337,280.93,325.25,295.5c-.43.53-.68.65-1.27.16-3.62-3-7.29-5.9-10.94-8.84-.28-.22-.48-.55-.88-.05q-3.45,4.35-7,8.65c-.26.32-.19.47.1.69l20.79,16.75.41.31.43-.51q15.63-19.38,31.28-38.76C358.58,273.42,358.53,273.23,358.07,272.86Zm0,0q-4.12-3.27-8.21-6.62c-.5-.41-.72-.43-1.15.11Q337,280.93,325.25,295.5c-.43.53-.68.65-1.27.16-3.62-3-7.29-5.9-10.94-8.84-.28-.22-.48-.55-.88-.05q-3.45,4.35-7,8.65c-.26.32-.19.47.1.69l20.79,16.75.41.31.43-.51q15.63-19.38,31.28-38.76C358.58,273.42,358.53,273.23,358.07,272.86Zm0,0q-4.12-3.27-8.21-6.62c-.5-.41-.72-.43-1.15.11Q337,280.93,325.25,295.5c-.43.53-.68.65-1.27.16-3.62-3-7.29-5.9-10.94-8.84-.28-.22-.48-.55-.88-.05q-3.45,4.35-7,8.65c-.26.32-.19.47.1.69l20.79,16.75.41.31.43-.51q15.63-19.38,31.28-38.76C358.58,273.42,358.53,273.23,358.07,272.86Zm0,0q-4.12-3.27-8.21-6.62c-.5-.41-.72-.43-1.15.11Q337,280.93,325.25,295.5c-.43.53-.68.65-1.27.16-3.62-3-7.29-5.9-10.94-8.84-.28-.22-.48-.55-.88-.05q-3.45,4.35-7,8.65c-.26.32-.19.47.1.69l20.79,16.75.41.31.43-.51q15.63-19.38,31.28-38.76C358.58,273.42,358.53,273.23,358.07,272.86Zm0,0q-4.12-3.27-8.21-6.62c-.5-.41-.72-.43-1.15.11Q337,280.93,325.25,295.5c-.43.53-.68.65-1.27.16-3.62-3-7.29-5.9-10.94-8.84-.28-.22-.48-.55-.88-.05q-3.45,4.35-7,8.65c-.26.32-.19.47.1.69l20.79,16.75.41.31.43-.51q15.63-19.38,31.28-38.76C358.58,273.42,358.53,273.23,358.07,272.86Zm0,0q-4.12-3.27-8.21-6.62c-.5-.41-.72-.43-1.15.11Q337,280.93,325.25,295.5c-.43.53-.68.65-1.27.16-3.62-3-7.29-5.9-10.94-8.84-.28-.22-.48-.55-.88-.05q-3.45,4.35-7,8.65c-.26.32-.19.47.1.69l20.79,16.75.41.31.43-.51q15.63-19.38,31.28-38.76C358.58,273.42,358.53,273.23,358.07,272.86Zm0,0q-4.12-3.27-8.21-6.62c-.5-.41-.72-.43-1.15.11Q337,280.93,325.25,295.5c-.43.53-.68.65-1.27.16-3.62-3-7.29-5.9-10.94-8.84-.28-.22-.48-.55-.88-.05q-3.45,4.35-7,8.65c-.26.32-.19.47.1.69l20.79,16.75.41.31.43-.51q15.63-19.38,31.28-38.76C358.58,273.42,358.53,273.23,358.07,272.86Zm0,0q-4.12-3.27-8.21-6.62c-.5-.41-.72-.43-1.15.11Q337,280.93,325.25,295.5c-.43.53-.68.65-1.27.16-3.62-3-7.29-5.9-10.94-8.84-.28-.22-.48-.55-.88-.05q-3.45,4.35-7,8.65c-.26.32-.19.47.1.69l20.79,16.75.41.31.43-.51q15.63-19.38,31.28-38.76C358.58,273.42,358.53,273.23,358.07,272.86Zm0,0q-4.12-3.27-8.21-6.62c-.5-.41-.72-.43-1.15.11Q337,280.93,325.25,295.5c-.43.53-.68.65-1.27.16-3.62-3-7.29-5.9-10.94-8.84-.28-.22-.48-.55-.88-.05q-3.45,4.35-7,8.65c-.26.32-.19.47.1.69l20.79,16.75.41.31.43-.51q15.63-19.38,31.28-38.76C358.58,273.42,358.53,273.23,358.07,272.86Zm0,0q-4.12-3.27-8.21-6.62c-.5-.41-.72-.43-1.15.11Q337,280.93,325.25,295.5c-.43.53-.68.65-1.27.16-3.62-3-7.29-5.9-10.94-8.84-.28-.22-.48-.55-.88-.05q-3.45,4.35-7,8.65c-.26.32-.19.47.1.69l20.79,16.75.41.31.43-.51q15.63-19.38,31.28-38.76C358.58,273.42,358.53,273.23,358.07,272.86Zm0,0q-4.12-3.27-8.21-6.62c-.5-.41-.72-.43-1.15.11Q337,280.93,325.25,295.5c-.43.53-.68.65-1.27.16-3.62-3-7.29-5.9-10.94-8.84-.28-.22-.48-.55-.88-.05q-3.45,4.35-7,8.65c-.26.32-.19.47.1.69l20.79,16.75.41.31.43-.51q15.63-19.38,31.28-38.76C358.58,273.42,358.53,273.23,358.07,272.86Zm0,0q-4.12-3.27-8.21-6.62c-.5-.41-.72-.43-1.15.11Q337,280.93,325.25,295.5c-.43.53-.68.65-1.27.16-3.62-3-7.29-5.9-10.94-8.84-.28-.22-.48-.55-.88-.05q-3.45,4.35-7,8.65c-.26.32-.19.47.1.69l20.79,16.75.41.31.43-.51q15.63-19.38,31.28-38.76C358.58,273.42,358.53,273.23,358.07,272.86Z" transform="translate(-76.75 -202.78)"/><polygon class="cls-5" points="411.76 234.5 411.63 234.42 411.51 233.46 411.64 233.53 411.76 234.5"/><path class="cls-4" d="M358.07,272.86q-4.12-3.27-8.21-6.62c-.5-.41-.72-.43-1.15.11Q337,280.93,325.25,295.5c-.43.53-.68.65-1.27.16-3.62-3-7.29-5.9-10.94-8.84-.28-.22-.48-.55-.88-.05q-3.45,4.35-7,8.65c-.26.32-.19.47.1.69l20.79,16.75.41.31.43-.51q15.63-19.38,31.28-38.76C358.58,273.42,358.53,273.23,358.07,272.86Z" transform="translate(-76.75 -202.78)"/><path class="cls-4" d="M358.2,273.9q-15.66,19.37-31.28,38.76l-.43.51-.41-.31-20.79-16.75c-.29-.22-.36-.37-.1-.69q3.51-4.31,7-8.65c.4-.5.6-.17.88.05,3.65,2.94,7.32,5.86,10.94,8.84.59.49.84.37,1.27-.16q11.72-14.6,23.46-29.15c.43-.54.65-.52,1.15-.11q4.08,3.35,8.21,6.62C358.53,273.23,358.58,273.42,358.2,273.9Z" transform="translate(-76.75 -202.78)"/><path class="cls-4" d="M398.28,548.77l-12.22,1.3-7.1.76L377.27,535l-.35-3.39h0L375.37,517l7-.74,13.18-1.4-.91-11.41-17.78,1.42-54.09,4.34,1.06,13.25,4.84-.51,3.59,33.83-5.71.61,1,12.94,27.45-2.19,44.42-3.57Zm-38.22,4.06-1.6.17-19.76,2.1L337,539.33l-.36-3.39-1.56-14.67,19.67-2.09,3.39-.36,10.77-1.14,1.55,14.58.36,3.39,1.68,15.86-10.69,1.13Z" transform="translate(-76.75 -202.78)"/></svg>